<svg width="32" height="32" viewBox="0 0 32 32" fill="none" xmlns="http://www.w3.org/2000/svg">
  <!-- Background circle -->
  <circle cx="16" cy="16" r="16" fill="#2563eb"/>
  
  <!-- Shop building -->
  <rect x="8" y="12" width="16" height="14" rx="1" fill="white"/>
  
  <!-- Roof -->
  <path d="M6 12 L16 6 L26 12 L24 12 L16 8 L8 12 Z" fill="#1d4ed8"/>
  
  <!-- Door -->
  <rect x="13" y="18" width="6" height="8" rx="0.5" fill="#2563eb"/>
  <circle cx="17.5" cy="22" r="0.5" fill="white"/>
  
  <!-- Windows -->
  <rect x="9.5" y="14.5" width="3" height="2.5" rx="0.3" fill="#2563eb"/>
  <rect x="19.5" y="14.5" width="3" height="2.5" rx="0.3" fill="#2563eb"/>
  
  <!-- Window frames -->
  <line x1="11" y1="14.5" x2="11" y2="17" stroke="white" stroke-width="0.3"/>
  <line x1="9.5" y1="15.75" x2="12.5" y2="15.75" stroke="white" stroke-width="0.3"/>
  <line x1="21" y1="14.5" x2="21" y2="17" stroke="white" stroke-width="0.3"/>
  <line x1="19.5" y1="15.75" x2="22.5" y2="15.75" stroke="white" stroke-width="0.3"/>
  
  <!-- Sign -->
  <rect x="10" y="19" width="2" height="4" fill="#dc2626"/>
  <text x="11" y="21.5" font-family="Arial, sans-serif" font-size="1.5" text-anchor="middle" fill="white" font-weight="bold">S</text>
</svg>